# AST/ASF file generated using VICON BodyLanguage
# -----------------------------------------------
:version 1.10
:name VICON
:units
  mass 1.0
  length 0.45
  angle deg
:documentation
   .ast/.asf automatically generated from VICON data using
   VICON BodyBuilder and BodyLanguage model FoxedUp or BRILLIANT.MOD
:root
   order TX TY TZ RX RY RZ
   axis XYZ
   position 0 0 0  
   orientation 0 0 0 
:bonedata
  begin
     id 1 
     name lhipjoint
     direction 0.567149 -0.783011 0.255413 
     length 2.28399 
     axis 0 0 0  XYZ
  end
  begin
     id 2 
     name lfemur
     direction 0.34202 -0.939693 0  
     length 7.34031  
     axis 0 0 20  XYZ
    dof rx ry rz
    limits (-160.0 20.0)
           (-70.0 70.0)
           (-60.0 70.0)
  end
  begin
     id 3 
     name ltibia
     direction 0.34202 -0.939693 0   
     length 6.9833   
     axis 0 0 20   XYZ
    dof rx
    limits (-10.0 170.0)
  end
  begin
     id 4 
     name lfoot
     direction 0.136498 -0.375025 0.91691   
     length 2.33665   
     axis -90 7.62852e-016 20   XYZ
    dof rx rz
    limits (-45.0 90.0)
           (-70.0 20.0)
  end
  begin
     id 5 
     name ltoes
     direction 1.5367e-011 -4.21617e-011 1   
     length 1.15039   
     axis -90 7.62852e-016 20   XYZ
    dof rx
    limits (-90.0 20.0)
  end
  begin
     id 6 
     name rhipjoint
     direction -0.602854 -0.758518 0.247423   
     length 2.35775  
     axis 0 0 0  XYZ 
  end
  begin
     id 7 
     name rfemur
     direction -0.34202 -0.939693 0   
     length 7.43932   
     axis 0 0 -20   XYZ
    dof rx ry rz
    limits (-160.0 20.0)
           (-70.0 70.0)
           (-70.0 60.0)
  end
  begin
     id 8 
     name rtibia
     direction -0.34202 -0.939693 0   
     length 7.11893   
     axis 0 0 -20   XYZ
    dof rx
    limits (-10.0 170.0)
 end
 begin
     id 9 
     name rfoot
     direction -0.131771 -0.362037 0.922803   
     length 2.53019  
     axis -90 -7.62852e-016 -20   XYZ
    dof rx rz
    limits (-45.0 90.0)
           (-20.0 70.0)
  end
  begin
     id 10 
     name rtoes
     direction -1.53733e-011 -4.21932e-011 1   
     length 1.24596   
     axis -90 -7.62852e-016 -20   XYZ
    dof rx
    limits (-90.0 20.0)
  end
  begin
     id 11 
     name lowerback
     direction 0.0235427 0.999023 -0.0374125   
     length 2.21768   
     axis 0 0 0   XYZ
    dof rx ry rz
    limits (-20.0 45.0)
           (-30.0 30.0)
           (-30.0 30.0)
  end
  begin
     id 12 
     name upperback
     direction 0.0302156 0.996818 -0.073759   
     length 2.20352   
     axis 0 0 0   XYZ
    dof rx ry rz
    limits (-20.0 45.0)
           (-30.0 30.0)
           (-30.0 30.0)
  end
  begin
     id 13 
     name thorax
     direction 0.0187169 0.998235 -0.0563532   
     length 2.22103   
     axis 0 0 0   XYZ
    dof rx ry rz
    limits (-20.0 45.0)
           (-30.0 30.0)
           (-30.0 30.0)
  end
  begin
     id 14 
     name lowerneck
     direction -0.119528 0.987423 0.103481   
     length 1.72948   
     axis 0 0 0   XYZ
    dof rx ry rz
    limits (-20.0 45.0)
           (-30.0 30.0)
           (-30.0 30.0)
  end
  begin
     id 15 
     name upperneck
     direction 0.248049 0.963095 -0.104496   
     length 1.74979   
     axis 0 0 0   XYZ
    dof rx ry rz
    limits (-20.0 45.0)
           (-30.0 30.0)
           (-30.0 30.0)
  end
  begin
     id 16
     name head
     direction 0.0903589 0.994284 -0.056876  
     length 1.78268  
     axis 0 0 0   XYZ
    dof rx ry rz
    limits (-20.0 45.0)
           (-30.0 30.0)
           (-30.0 30.0)
  end
  begin
     id 17 
     name lclavicle
     direction 0.946008 0.242039 -0.215608  
     length 3.80783  
     axis 0 0 0   XYZ
    dof ry rz
    limits (-20.0 10.0)
           (0.0 20.0)
  end
  begin
     id 18 
     name lhumerus
     direction 1 -4.48991e-011 -2.25695e-027   
     length 4.83125   
     axis 180 -30 -90   XYZ
    dof rx ry rz
    limits (-60.0 90.0)
           (-90.0 90.0)
           (-90.0 90.0)
  end
  begin
     id 19
     name lradius
     direction 0.999991 0.00366712 -0.00211721   
     length 3.00391   
     axis 180 -30 -90   XYZ
    dof rx
    limits (-10.0 170.0)
  end
  begin
     id 20
     name lwrist
     direction 0.999991 0.00393016 -0.00141978   
     length 1.50195   
     axis -1.00488e-014 90 90   XYZ
    dof ry
    limits (-180.0 0.0)
 end
  begin
     id 21 
     name lhand
     direction 1 -4.49123e-011 2.72098e-026   
     length 1.2717   
     axis -1.73687e-014 90 90   XYZ
    dof rx rz
    limits (-90.0 90.0)
           (-45.0 45.0)
  end
  begin
     id 22 
     name lfingers
     direction 1 -4.48678e-011 5.4479e-026   
     length 1.02528   
     axis -3.47372e-014 90 90   XYZ
    dof rx
    limits (0.0 90.0)
  end
  begin
     id 23
     name lthumb
     direction 0.707107 -6.34851e-011 0.707107   
     length 1.4721   
     axis -90 45 -1.62303e-014   XYZ
    dof rx rz
    limits (-45.0 45.0)
           (-45.0 45.0)
  end
  begin
     id 24 
     name rclavicle
     direction -0.981723 0.189447 -0.0181673   
     length 3.74989  
     axis 0 0 0   XYZ 
    dof ry rz
    limits (-10.0 20.0)
           (-20.0 0.0)
  end
  begin
     id 25 
     name rhumerus
     direction -1 -4.48985e-011 2.38206e-027  
     length 4.61118   
     axis 180 30 90   XYZ
    dof rx ry rz
    limits (-90.0 60.0)
           (-90.0 90.0)
           (-90.0 90.0)
  end
  begin
     id 26 
     name rradius
     direction -1 -4.48977e-011 7.41019e-027   
     length 2.91491   
     axis 180 30 90   XYZ
    dof rx
    limits (-10.0 170.0)
  end
  begin
     id 27 
     name rwrist
     direction -1 -4.48549e-011 1.3624e-026   
     length 1.45745   
     axis -1.00488e-014 -90 -90   XYZ
    dof ry
    limits (-180.0 0.0)
  end
  begin
     id 28
     name rhand
     direction -1 -4.49107e-011 2.72109e-026   
     length 1.30769   
     axis -1.73687e-014 -90 -90   XYZ
    dof rx rz
    limits (-90.0 90.0)
           (-45.0 45.0)
  end
  begin
     id 29
     name rfingers
     direction -1 -4.48919e-011 5.44468e-026   
     length 1.05429   
     axis -3.47372e-014 -90 -90   XYZ
    dof rx
    limits (0.0 90.0)
  end
  begin
     id 30
     name rthumb
     direction -0.707107 -6.35315e-011 0.707107   
     length 1.51376   
     axis -90 -45 1.62303e-014   XYZ
    dof rx rz
    limits (-45.0 45.0)
           (-45.0 45.0)
  end
:hierarchy
  begin
    root lhipjoint rhipjoint lowerback
    lhipjoint lfemur
    lfemur ltibia
    ltibia lfoot
    lfoot ltoes
    rhipjoint rfemur
    rfemur rtibia
    rtibia rfoot
    rfoot rtoes
    lowerback upperback
    upperback thorax
    thorax lowerneck lclavicle rclavicle
    lowerneck upperneck
    upperneck head
    lclavicle lhumerus
    lhumerus lradius
    lradius lwrist
    lwrist lhand lthumb
    lhand lfingers
    rclavicle rhumerus
    rhumerus rradius
    rradius rwrist
    rwrist rhand rthumb
    rhand rfingers
  end

#!OML:ASF X:\für Bonn\!DataBase\2005_08_11_Bastian_Final\c3d\Bastian.ASF
:FULLY-SPECIFIED
:DEGREES
21
root 1.33379 17.1802 22.5051 -551.586 -37.7914 -181.238
lowerback 11.6926 -1.08615 -1.58052
upperback 9.96132 -2.6095 -0.87443
thorax 3.92492 -1.81901 0.150468
lowerneck 5.85422 -13.3631 -15.3906
upperneck -6.10338 -18.6629 21.3127
head 0.834146 -9.83169 8.59997
rclavicle 1.39249e-013 -3.1408e-014
rhumerus -34.2027 3.5183 -89.8922
rradius 33.1655
rwrist -3.40031
rhand -14.7055 4.538
rfingers 7.12502
rthumb 11.4488 -25.1294
lclavicle 1.39249e-013 -3.1408e-014
lhumerus -25.9115 6.81843 79.8109
lradius 13.9826
lwrist 9.97506
lhand -11.2426 -7.02948
lfingers 7.12502
lthumb 14.7868 22.423
rfemur -3.58468 6.54984 24.1052
rtibia 41.7732
rfoot -16.8247 -1.44061
rtoes -5.37777
lfemur 7.21831 -1.11932 -16.3528
ltibia 22.5128
lfoot -10.1273 -10.6583
ltoes -13.1392
22
root 1.30203 17.1818 22.5144 -551.595 -37.1978 -181.26
lowerback 11.7797 -1.05868 -1.6918
upperback 9.98887 -2.59879 -0.85766
thorax 3.91286 -1.8269 0.231331
lowerneck 5.56563 -13.2466 -15.5363
upperneck -5.96802 -18.4943 21.2843
head 0.900504 -9.72744 8.59872
rclavicle 3.79679e-014 -7.35503e-015
rhumerus -34.291 3.22634 -89.6308
rradius 32.823
rwrist -3.36885
rhand -14.6914 4.39298
rfingers 7.12502
rthumb 11.4624 -25.2737
lclavicle 3.79679e-014 -7.35503e-015
lhumerus -25.5201 5.91918 79.8492
lradius 14.4117
lwrist 10.4142
lhand -11.1507 -7.17406
lfingers 7.12502
lthumb 14.8753 22.2719
rfemur -3.90621 6.68436 23.9874
rtibia 42.3225
rfoot -16.8366 -1.18745
rtoes -5.92462
lfemur 7.45263 -0.612869 -16.3432
ltibia 22.3802
lfoot -10.1153 -10.6152
ltoes -12.1269
23
root 1.27129 17.183 22.5226 -551.598 -36.6224 -181.258
lowerback 11.8232 -1.0414 -1.76416
upperback 10.0295 -2.59788 -0.851007
thorax 3.93649 -1.83765 0.278408
lowerneck 5.27748 -13.1242 -15.7017
upperneck -5.85978 -18.3181 21.3207
head 0.966571 -9.62298 8.62258
rclavicle -9.91439e-014 2.82274e-014
rhumerus -34.3317 2.85823 -89.3878
rradius 32.4966
rwrist -3.34638
rhand -14.655 4.19018
rfingers 7.12502
rthumb 11.4975 -25.4745
lclavicle -9.91439e-014 2.82274e-014
lhumerus -25.0461 5.42839 79.7194
lradius 14.7001
lwrist 10.4972
lhand -11.1031 -7.39978
lfingers 7.12502
lthumb 14.9212 22.0428
rfemur -4.24211 6.82109 23.8992
rtibia 42.8666
rfoot -16.8438 -1.03112
rtoes -6.44506
lfemur 7.65758 -0.109949 -16.3045
ltibia 22.2446
lfoot -10.1077 -10.5851
ltoes -11.3949
24
root 1.2419 17.1826 22.5316 -551.613 -36.0484 -181.27
lowerback 11.8966 -1.00835 -1.86503
upperback 10.08 -2.5822 -0.829751
thorax 3.95628 -1.84448 0.356201
lowerneck 4.99165 -13.0145 -15.8278
upperneck -5.77973 -18.1501 21.3161
head 1.01724 -9.52223 8.62955
rclavicle -7.90666e-014 1.92821e-014
rhumerus -34.3505 2.56173 -89.1342
rradius 32.1607
rwrist -3.40579
rhand -14.6809 4.01767
rfingers 7.12502
rthumb 11.4725 -25.6484
lclavicle -7.90666e-014 1.92821e-014
lhumerus -24.5839 4.92792 79.6038
lradius 15.0323
lwrist 10.6318
lhand -11.132 -7.65032
lfingers 7.12502
lthumb 14.8934 21.7943
rfemur -4.56596 6.86507 23.7859
rtibia 43.4048
rfoot -16.7754 -0.822258
rtoes -7.19512
lfemur 7.87537 0.395006 -16.2677
ltibia 22.1117
lfoot -10.0746 -10.5817
ltoes -10.2679
